<svg width="20" height="14" viewBox="0 0 20 14" fill="none" xmlns="http://www.w3.org/2000/svg">
<path d="M13.07 6.87882L19.7172 11.081V2.49915L13.07 6.87882Z" fill="#F6E36A"/>
<path d="M0 2.49915V11.081L6.64715 6.87882L0 2.49915Z" fill="#F6E36A"/>
<path d="M18.4849 0H1.23234C0.617412 0 0.129412 0.458424 0.0369873 1.04871L9.8586 7.51964L19.6802 1.04871C19.5878 0.458424 19.0998 0 18.4849 0Z" fill="#F6E36A"/>
<path d="M11.9412 7.62315L10.1975 8.77167C10.094 8.83945 9.97688 8.87272 9.85858 8.87272C9.74028 8.87272 9.62321 8.83945 9.51969 8.77167L7.77595 7.62192L0.0394287 12.5155C0.134318 13.1008 0.619853 13.5556 1.23232 13.5556H18.4848C19.0973 13.5556 19.5828 13.1008 19.6777 12.5155L11.9412 7.62315Z" fill="#F6E36A"/>
</svg>
