<svg width="27" height="27" viewBox="0 0 27 27" fill="none" xmlns="http://www.w3.org/2000/svg">
<path d="M12.7157 8.96403L7.54596 7.07581C7.54596 8.79981 7.53198 8.78759 7.58394 8.95027C7.65557 9.18378 7.82526 9.37767 8.05286 9.46869C13.6857 11.7294 13.2897 11.5958 13.5 11.5958C13.7085 11.5958 13.3076 11.7319 18.9466 9.46869C19.2488 9.34756 19.4541 9.04499 19.4541 8.69822V7.16606L14.2506 8.97614C13.7513 9.14977 13.2114 9.14542 12.7157 8.96403Z" fill="#F6E36A"/>
<path d="M5.09953 4.39944C5.28995 4.53108 4.65303 4.27038 13.2384 7.40541C13.4032 7.46628 13.5824 7.46771 13.75 7.40981C16.7409 6.3695 18.652 5.7048 21.0491 4.87108V9.52698C21.0491 9.75483 21.1377 9.96175 21.2812 10.1109C21.7769 10.6282 22.6315 10.2599 22.6315 9.52698C22.6315 3.89824 22.6301 3.77095 22.6299 3.77166C22.6537 3.41961 22.4411 3.06469 22.0903 2.94268C13.6436 0.00522811 13.6875 0 13.5 0C13.3054 0 13.3619 0.00170597 5.29575 2.94653C4.69402 3.16623 4.5746 4.00776 5.09953 4.39944Z" fill="#F6E36A"/>
<path d="M4.75934 17.3943H6.3544V19.058H4.75934V17.3943Z" fill="#F6E36A"/>
<path d="M26.2088 3.72583H24.2139V9.52699C24.2139 10.8929 23.149 12.0035 21.8403 12.0035C20.9979 12.0035 20.2569 11.5434 19.8354 10.8517C19.6175 10.9806 19.9795 10.8233 14.3524 13.0817C13.8133 13.2982 13.2065 13.3057 12.6476 13.0817L7.48476 11.0096C6.56802 10.6414 5.96355 9.72385 5.96355 8.69818V6.49846L4.77305 6.06314C3.82203 5.71642 3.18327 4.77698 3.18327 3.72583H0.791201C0.354458 3.72583 0 4.09566 0 4.55134V22.3731C0 22.8288 0.354458 23.1986 0.791201 23.1986H7.94297V24.8623H5.55687C5.12013 24.8623 4.76567 25.2321 4.76567 25.6878C4.76567 26.144 5.12013 26.5133 5.55687 26.5133H21.4431C21.8799 26.5133 22.2343 26.144 22.2343 25.6878C22.2343 25.2321 21.8799 24.8623 21.4431 24.8623H19.057V23.1986H26.2088C26.6455 23.1986 27 22.8288 27 22.3731V4.55134C27 4.09566 26.6455 3.72583 26.2088 3.72583ZM7.9368 19.8833C7.9368 20.3396 7.58234 20.7089 7.1456 20.7089H3.96814C3.53139 20.7089 3.17694 20.3396 3.17694 19.8833V16.5686C3.17694 16.1124 3.53139 15.7431 3.96814 15.7431H7.1456C7.58234 15.7431 7.9368 16.1124 7.9368 16.5686V19.8833ZM23.0319 20.7089H10.3225C9.88579 20.7089 9.53133 20.3396 9.53133 19.8833C9.53133 19.4277 9.88579 19.0578 10.3225 19.0578H23.0319C23.4686 19.0578 23.8231 19.4277 23.8231 19.8833C23.8231 20.3396 23.4686 20.7089 23.0319 20.7089ZM23.0319 17.3941H10.3225C9.88579 17.3941 9.53133 17.0243 9.53133 16.5686C9.53133 16.1124 9.88579 15.7431 10.3225 15.7431H23.0319C23.4686 15.7431 23.8231 16.1124 23.8231 16.5686C23.8231 17.0243 23.4686 17.3941 23.0319 17.3941Z" fill="#F6E36A"/>
</svg>
