<svg width="10" height="15" viewBox="0 0 10 15" fill="none" xmlns="http://www.w3.org/2000/svg">
<path d="M4.81132 0C2.15838 0 0 2.25073 0 5.01718C0 8.49431 4.81605 14.434 4.81605 14.434C4.81605 14.434 9.62264 8.32332 9.62264 5.01718C9.62264 2.25073 7.46435 0 4.81132 0ZM6.263 6.48621C5.86271 6.90353 5.33706 7.11223 4.81132 7.11223C4.28567 7.11223 3.75984 6.90353 3.35973 6.48621C2.55925 5.65157 2.55925 4.29345 3.35973 3.45872C3.74734 3.05435 4.26294 2.83164 4.81132 2.83164C5.3597 2.83164 5.87522 3.05444 6.263 3.45872C7.06348 4.29345 7.06348 5.65157 6.263 6.48621Z" fill="#F6E36A"/>
</svg>
