<svg width="51" height="46" viewBox="0 0 51 46" fill="none" xmlns="http://www.w3.org/2000/svg">
<path d="M47.7991 31.3997V15.2131L44.8109 16.2296V31.3997C42.9526 32.0381 41.6101 33.8315 41.6101 35.9401V44.1053C41.6101 44.9473 42.2791 45.63 43.1042 45.63H49.5057C50.3309 45.63 50.9999 44.9473 50.9999 44.1053V35.9401C50.9999 33.8315 49.6573 32.0381 47.7991 31.3997Z" fill="#F6E36A"/>
<path d="M24.083 22.3158L9.60229 17.3904V27.7748C9.60229 28.1792 9.75978 28.567 10.04 28.8529C14.17 33.0667 19.6608 35.3874 25.5006 35.3874C31.3406 35.3874 36.8309 33.0667 40.96 28.8527C41.2402 28.5668 41.3976 28.179 41.3976 27.7748V17.3904L26.9174 22.3157C25.9276 22.652 24.9312 22.6041 24.083 22.3158Z" fill="#F6E36A"/>
<path d="M25.5 19.5012C25.6596 19.5012 25.8191 19.475 25.9724 19.4229L49.9783 11.2577C50.5884 11.0501 51 10.4675 51 9.81131C51 9.15511 50.5885 8.5725 49.9783 8.36494L25.9724 0.199719C25.6659 0.0955362 25.3342 0.0955362 25.0276 0.199719L1.02169 8.36494C0.411486 8.5724 0 9.15501 0 9.81131C0 10.4676 0.411486 11.0501 1.02169 11.2577L25.0276 19.4229C25.1809 19.475 25.3404 19.5012 25.5 19.5012Z" fill="#F6E36A"/>
</svg>
