<svg width="12" height="14" viewBox="0 0 12 14" fill="none" xmlns="http://www.w3.org/2000/svg">
<path d="M10.6206 9.08791C9.91364 9.08791 9.21949 8.95891 8.56169 8.7053C8.23936 8.57704 7.84312 8.69471 7.6464 8.93043L6.34804 10.0739C4.84231 9.13619 3.91481 8.05445 3.12203 6.31095L4.07331 4.83566C4.32046 4.5477 4.40911 4.12706 4.3029 3.73239C4.08459 2.96092 3.97369 2.15146 3.97369 1.32632C3.97372 0.730231 3.55805 0.245285 3.04715 0.245285H0.926568C0.415667 0.245285 0 0.730231 0 1.32628C0 8.15861 4.76434 13.717 10.6206 13.717C11.1315 13.717 11.5472 13.232 11.5472 12.636V10.1689C11.5471 9.57286 11.1315 9.08791 10.6206 9.08791Z" fill="#F6E36A"/>
</svg>
