<svg width="27" height="25" viewBox="0 0 27 25" fill="none" xmlns="http://www.w3.org/2000/svg">
<path d="M25.3055 16.559V7.98962L23.7234 8.52773V16.559C22.7397 16.8969 22.0289 17.8464 22.0289 18.9627V23.2855C22.0289 23.7313 22.3831 24.0927 22.8199 24.0927H26.209C26.6458 24.0927 27 23.7313 27 23.2855V18.9627C27 17.8464 26.2892 16.8969 25.3055 16.559Z" fill="#F6E36A"/>
<path d="M12.7499 11.7499L5.08362 9.14233V14.6399C5.08362 14.8541 5.16699 15.0593 5.31533 15.2107C7.50181 17.4415 10.4087 18.6701 13.5004 18.6701C16.5922 18.6701 19.4988 17.4415 21.6848 15.2106C21.8331 15.0592 21.9164 14.854 21.9164 14.6399V9.14233L14.2504 11.7498C13.7264 11.9279 13.1989 11.9025 12.7499 11.7499Z" fill="#F6E36A"/>
<path d="M13.5 10.2598C13.5845 10.2598 13.669 10.246 13.7501 10.2183L26.4591 5.89558C26.7821 5.7857 27 5.47726 27 5.12986C27 4.78246 26.7822 4.47401 26.4591 4.36413L13.7501 0.0413669C13.5878 -0.013789 13.4122 -0.013789 13.2499 0.0413669L0.540896 4.36413C0.217846 4.47396 0 4.7824 0 5.12986C0 5.47731 0.217846 5.7857 0.540896 5.89558L13.2499 10.2183C13.331 10.246 13.4155 10.2598 13.5 10.2598Z" fill="#F6E36A"/>
</svg>
