<svg width="27" height="28" viewBox="0 0 27 28" fill="none" xmlns="http://www.w3.org/2000/svg">
<path d="M25.4475 12.487L17.4375 10.7411V27.8943H25.0313C26.1169 27.8943 27 26.9751 27 25.8452V14.4893C27 13.5221 26.3666 12.6989 25.4475 12.487ZM22.7813 24.3815H21.0938C20.628 24.3815 20.25 23.988 20.25 23.5033C20.25 23.0185 20.628 22.6251 21.0938 22.6251H22.7813C23.247 22.6251 23.625 23.0185 23.625 23.5033C23.625 23.988 23.247 24.3815 22.7813 24.3815ZM22.7813 20.8686H21.0938C20.628 20.8686 20.25 20.4752 20.25 19.9904C20.25 19.5056 20.628 19.1122 21.0938 19.1122H22.7813C23.247 19.1122 23.625 19.5056 23.625 19.9904C23.625 20.4752 23.247 20.8686 22.7813 20.8686ZM22.7813 17.3558H21.0938C20.628 17.3558 20.25 16.9623 20.25 16.4776C20.25 15.9928 20.628 15.5994 21.0938 15.5994H22.7813C23.247 15.5994 23.625 15.9928 23.625 16.4776C23.625 16.9623 23.247 17.3558 22.7813 17.3558Z" fill="#F6E36A"/>
<path d="M14.6588 1.98125L2.295 0.0257632C1.72125 -0.0679128 1.13625 0.0960201 0.6975 0.482433C0.25875 0.880556 0 1.45432 0 2.05151V26.7234C0 27.3674 0.50625 27.8944 1.125 27.8944H4.78125V21.7469C4.78125 20.6111 5.65875 19.6977 6.75 19.6977H9.5625C10.6538 19.6977 11.5313 20.6111 11.5313 21.7469V27.8944H16.3125V4.00699C16.3125 2.99997 15.615 2.14518 14.6588 1.98125ZM6.1875 17.0631H4.5C4.03425 17.0631 3.65625 16.6696 3.65625 16.1849C3.65625 15.7001 4.03425 15.3067 4.5 15.3067H6.1875C6.65325 15.3067 7.03125 15.7001 7.03125 16.1849C7.03125 16.6696 6.65325 17.0631 6.1875 17.0631ZM6.1875 13.5502H4.5C4.03425 13.5502 3.65625 13.1568 3.65625 12.672C3.65625 12.1872 4.03425 11.7938 4.5 11.7938H6.1875C6.65325 11.7938 7.03125 12.1872 7.03125 12.672C7.03125 13.1568 6.65325 13.5502 6.1875 13.5502ZM6.1875 10.0374H4.5C4.03425 10.0374 3.65625 9.64394 3.65625 9.15917C3.65625 8.67439 4.03425 8.28096 4.5 8.28096H6.1875C6.65325 8.28096 7.03125 8.67439 7.03125 9.15917C7.03125 9.64394 6.65325 10.0374 6.1875 10.0374ZM6.1875 6.52453H4.5C4.03425 6.52453 3.65625 6.13109 3.65625 5.64632C3.65625 5.16155 4.03425 4.76811 4.5 4.76811H6.1875C6.65325 4.76811 7.03125 5.16155 7.03125 5.64632C7.03125 6.13109 6.65325 6.52453 6.1875 6.52453ZM11.8125 17.0631H10.125C9.65925 17.0631 9.28125 16.6696 9.28125 16.1849C9.28125 15.7001 9.65925 15.3067 10.125 15.3067H11.8125C12.2783 15.3067 12.6563 15.7001 12.6563 16.1849C12.6563 16.6696 12.2783 17.0631 11.8125 17.0631ZM11.8125 13.5502H10.125C9.65925 13.5502 9.28125 13.1568 9.28125 12.672C9.28125 12.1872 9.65925 11.7938 10.125 11.7938H11.8125C12.2783 11.7938 12.6563 12.1872 12.6563 12.672C12.6563 13.1568 12.2783 13.5502 11.8125 13.5502ZM11.8125 10.0374H10.125C9.65925 10.0374 9.28125 9.64394 9.28125 9.15917C9.28125 8.67439 9.65925 8.28096 10.125 8.28096H11.8125C12.2783 8.28096 12.6563 8.67439 12.6563 9.15917C12.6563 9.64394 12.2783 10.0374 11.8125 10.0374ZM11.8125 6.52453H10.125C9.65925 6.52453 9.28125 6.13109 9.28125 5.64632C9.28125 5.16155 9.65925 4.76811 10.125 4.76811H11.8125C12.2783 4.76811 12.6563 5.16155 12.6563 5.64632C12.6563 6.13109 12.2783 6.52453 11.8125 6.52453Z" fill="#F6E36A"/>
</svg>
