<svg width="51" height="50" viewBox="0 0 51 50" fill="none" xmlns="http://www.w3.org/2000/svg">
<path d="M23.7699 16.8786L14.106 13.3489C14.106 16.5716 14.0799 16.5488 14.177 16.8529C14.3109 17.2894 14.6281 17.6518 15.0535 17.822C25.5833 22.048 24.843 21.7982 25.2361 21.7982C25.6259 21.7982 24.8764 22.0526 35.4177 17.822C35.9825 17.5956 36.3663 17.0299 36.3663 16.3817V13.5176L26.6392 16.9012C25.706 17.2258 24.6967 17.2177 23.7699 16.8786Z" fill="#F6E36A"/>
<path d="M9.5328 8.34564C9.88876 8.59172 8.69814 8.10439 24.747 13.9648C25.0552 14.0786 25.3901 14.0813 25.7035 13.9731C31.2946 12.0284 34.8669 10.7858 39.348 9.2273V17.9308C39.348 18.3567 39.5136 18.7435 39.7818 19.0223C40.7086 19.9893 42.306 19.3009 42.306 17.9308C42.306 7.40873 42.3034 7.17077 42.3031 7.17211C42.3475 6.514 41.9501 5.85054 41.2944 5.62246C25.5046 0.131355 25.5866 0.121582 25.2361 0.121582C24.8724 0.121582 24.9781 0.124771 9.8996 5.62966C8.77476 6.04035 8.55152 7.61345 9.5328 8.34564Z" fill="#F6E36A"/>
<path d="M8.89685 32.6372H11.8786V35.7472H8.89685V32.6372Z" fill="#F6E36A"/>
<path d="M48.9932 7.08643H45.2641V17.9308C45.2641 20.4842 43.2733 22.5603 40.827 22.5603C39.2523 22.5603 37.867 21.7002 37.0791 20.407C36.6717 20.6481 37.3484 20.3541 26.8295 24.5757C25.8218 24.9804 24.6874 24.9945 23.6427 24.5757L13.9916 20.7023C12.2779 20.0139 11.1479 18.2988 11.1479 16.3814V12.2694L8.92246 11.4556C7.14467 10.8075 5.95061 9.05139 5.95061 7.08643H1.47902C0.662603 7.08643 0 7.77776 0 8.62959V41.9445C0 42.7963 0.662603 43.4877 1.47902 43.4877H14.8481V46.5977H10.3877C9.57126 46.5977 8.90866 47.289 8.90866 48.1408C8.90866 48.9937 9.57126 49.684 10.3877 49.684H40.0845C40.9009 49.684 41.5635 48.9937 41.5635 48.1408C41.5635 47.289 40.9009 46.5977 40.0845 46.5977H35.624V43.4877H48.9932C49.8096 43.4877 50.4722 42.7963 50.4722 41.9445V8.62959C50.4722 7.77776 49.8096 7.08643 48.9932 7.08643ZM14.8366 37.2903C14.8366 38.1432 14.174 38.8335 13.3576 38.8335H7.4178C6.60138 38.8335 5.93878 38.1432 5.93878 37.2903V31.094C5.93878 30.2411 6.60138 29.5508 7.4178 29.5508H13.3576C14.174 29.5508 14.8366 30.2411 14.8366 31.094V37.2903ZM43.0544 38.8335H19.2963C18.4799 38.8335 17.8173 38.1432 17.8173 37.2903C17.8173 36.4385 18.4799 35.7472 19.2963 35.7472H43.0544C43.8708 35.7472 44.5334 36.4385 44.5334 37.2903C44.5334 38.1432 43.8708 38.8335 43.0544 38.8335ZM43.0544 32.6372H19.2963C18.4799 32.6372 17.8173 31.9458 17.8173 31.094C17.8173 30.2411 18.4799 29.5508 19.2963 29.5508H43.0544C43.8708 29.5508 44.5334 30.2411 44.5334 31.094C44.5334 31.9458 43.8708 32.6372 43.0544 32.6372Z" fill="#F6E36A"/>
</svg>
