<svg width="52" height="54" viewBox="0 0 52 54" fill="none" xmlns="http://www.w3.org/2000/svg">
<path d="M48.3199 24.2736L33.1105 20.9585V53.5291H47.5295C49.5909 53.5291 51.2678 51.7837 51.2678 49.6381V28.0756C51.2678 26.2391 50.0651 24.676 48.3199 24.2736ZM43.2572 46.8589H40.053C39.1686 46.8589 38.4509 46.1118 38.4509 45.1913C38.4509 44.2708 39.1686 43.5238 40.053 43.5238H43.2572C44.1416 43.5238 44.8593 44.2708 44.8593 45.1913C44.8593 46.1118 44.1416 46.8589 43.2572 46.8589ZM43.2572 40.1887H40.053C39.1686 40.1887 38.4509 39.4416 38.4509 38.5211C38.4509 37.6006 39.1686 36.8536 40.053 36.8536H43.2572C44.1416 36.8536 44.8593 37.6006 44.8593 38.5211C44.8593 39.4416 44.1416 40.1887 43.2572 40.1887ZM43.2572 33.5185H40.053C39.1686 33.5185 38.4509 32.7714 38.4509 31.8509C38.4509 30.9304 39.1686 30.1834 40.053 30.1834H43.2572C44.1416 30.1834 44.8593 30.9304 44.8593 31.8509C44.8593 32.7714 44.1416 33.5185 43.2572 33.5185Z" fill="#F6E36A"/>
<path d="M27.834 4.32535L4.35775 0.612274C3.26831 0.434402 2.15751 0.745677 1.32441 1.4794C0.491315 2.23535 0 3.32482 0 4.45875V51.3058C0 52.5286 0.961268 53.5292 2.13615 53.5292H9.07864V41.8563C9.07864 39.6996 10.7448 37.9654 12.8169 37.9654H18.1573C20.2293 37.9654 21.8955 39.6996 21.8955 41.8563V53.5292H30.9742V8.17183C30.9742 6.25971 29.6498 4.63662 27.834 4.32535ZM11.7488 32.9627H8.5446C7.66024 32.9627 6.94249 32.2157 6.94249 31.2952C6.94249 30.3747 7.66024 29.6276 8.5446 29.6276H11.7488C12.6332 29.6276 13.3509 30.3747 13.3509 31.2952C13.3509 32.2157 12.6332 32.9627 11.7488 32.9627ZM11.7488 26.2925H8.5446C7.66024 26.2925 6.94249 25.5455 6.94249 24.625C6.94249 23.7045 7.66024 22.9574 8.5446 22.9574H11.7488C12.6332 22.9574 13.3509 23.7045 13.3509 24.625C13.3509 25.5455 12.6332 26.2925 11.7488 26.2925ZM11.7488 19.6223H8.5446C7.66024 19.6223 6.94249 18.8753 6.94249 17.9548C6.94249 17.0343 7.66024 16.2872 8.5446 16.2872H11.7488C12.6332 16.2872 13.3509 17.0343 13.3509 17.9548C13.3509 18.8753 12.6332 19.6223 11.7488 19.6223ZM11.7488 12.9521H8.5446C7.66024 12.9521 6.94249 12.2051 6.94249 11.2846C6.94249 10.3641 7.66024 9.61704 8.5446 9.61704H11.7488C12.6332 9.61704 13.3509 10.3641 13.3509 11.2846C13.3509 12.2051 12.6332 12.9521 11.7488 12.9521ZM22.4296 32.9627H19.2254C18.341 32.9627 17.6232 32.2157 17.6232 31.2952C17.6232 30.3747 18.341 29.6276 19.2254 29.6276H22.4296C23.3139 29.6276 24.0317 30.3747 24.0317 31.2952C24.0317 32.2157 23.3139 32.9627 22.4296 32.9627ZM22.4296 26.2925H19.2254C18.341 26.2925 17.6232 25.5455 17.6232 24.625C17.6232 23.7045 18.341 22.9574 19.2254 22.9574H22.4296C23.3139 22.9574 24.0317 23.7045 24.0317 24.625C24.0317 25.5455 23.3139 26.2925 22.4296 26.2925ZM22.4296 19.6223H19.2254C18.341 19.6223 17.6232 18.8753 17.6232 17.9548C17.6232 17.0343 18.341 16.2872 19.2254 16.2872H22.4296C23.3139 16.2872 24.0317 17.0343 24.0317 17.9548C24.0317 18.8753 23.3139 19.6223 22.4296 19.6223ZM22.4296 12.9521H19.2254C18.341 12.9521 17.6232 12.2051 17.6232 11.2846C17.6232 10.3641 18.341 9.61704 19.2254 9.61704H22.4296C23.3139 9.61704 24.0317 10.3641 24.0317 11.2846C24.0317 12.2051 23.3139 12.9521 22.4296 12.9521Z" fill="#F6E36A"/>
</svg>
