<svg width="40" height="42" viewBox="0 0 40 42" fill="none" xmlns="http://www.w3.org/2000/svg">
<path d="M37.7 18.4992L25.8333 15.9127V41.3249H37.0833C38.6917 41.3249 40 39.9631 40 38.2891V21.4656C40 20.0327 39.0617 18.8132 37.7 18.4992ZM33.75 36.1207H31.25C30.56 36.1207 30 35.5378 30 34.8196C30 34.1015 30.56 33.5186 31.25 33.5186H33.75C34.44 33.5186 35 34.1015 35 34.8196C35 35.5378 34.44 36.1207 33.75 36.1207ZM33.75 30.9165H31.25C30.56 30.9165 30 30.3336 30 29.6154C30 28.8972 30.56 28.3144 31.25 28.3144H33.75C34.44 28.3144 35 28.8972 35 29.6154C35 30.3336 34.44 30.9165 33.75 30.9165ZM33.75 25.7123H31.25C30.56 25.7123 30 25.1294 30 24.4112C30 23.693 30.56 23.1102 31.25 23.1102H33.75C34.44 23.1102 35 23.693 35 24.4112C35 25.1294 34.44 25.7123 33.75 25.7123Z" fill="#F6E36A"/>
<path d="M21.7167 2.93518L3.4 0.0381676C2.55 -0.100612 1.68333 0.142252 1.03333 0.714716C0.383333 1.30453 0 2.15455 0 3.03927V39.5902C0 40.5443 0.75 41.325 1.66667 41.325H7.08333V32.2176C7.08333 30.5349 8.38333 29.1818 10 29.1818H14.1667C15.7833 29.1818 17.0833 30.5349 17.0833 32.2176V41.325H24.1667V5.93628C24.1667 4.44441 23.1333 3.17805 21.7167 2.93518ZM9.16667 25.2786H6.66667C5.97667 25.2786 5.41667 24.6958 5.41667 23.9776C5.41667 23.2594 5.97667 22.6765 6.66667 22.6765H9.16667C9.85667 22.6765 10.4167 23.2594 10.4167 23.9776C10.4167 24.6958 9.85667 25.2786 9.16667 25.2786ZM9.16667 20.0744H6.66667C5.97667 20.0744 5.41667 19.4915 5.41667 18.7734C5.41667 18.0552 5.97667 17.4723 6.66667 17.4723H9.16667C9.85667 17.4723 10.4167 18.0552 10.4167 18.7734C10.4167 19.4915 9.85667 20.0744 9.16667 20.0744ZM9.16667 14.8702H6.66667C5.97667 14.8702 5.41667 14.2873 5.41667 13.5691C5.41667 12.851 5.97667 12.2681 6.66667 12.2681H9.16667C9.85667 12.2681 10.4167 12.851 10.4167 13.5691C10.4167 14.2873 9.85667 14.8702 9.16667 14.8702ZM9.16667 9.66597H6.66667C5.97667 9.66597 5.41667 9.0831 5.41667 8.36492C5.41667 7.64673 5.97667 7.06386 6.66667 7.06386H9.16667C9.85667 7.06386 10.4167 7.64673 10.4167 8.36492C10.4167 9.0831 9.85667 9.66597 9.16667 9.66597ZM17.5 25.2786H15C14.31 25.2786 13.75 24.6958 13.75 23.9776C13.75 23.2594 14.31 22.6765 15 22.6765H17.5C18.19 22.6765 18.75 23.2594 18.75 23.9776C18.75 24.6958 18.19 25.2786 17.5 25.2786ZM17.5 20.0744H15C14.31 20.0744 13.75 19.4915 13.75 18.7734C13.75 18.0552 14.31 17.4723 15 17.4723H17.5C18.19 17.4723 18.75 18.0552 18.75 18.7734C18.75 19.4915 18.19 20.0744 17.5 20.0744ZM17.5 14.8702H15C14.31 14.8702 13.75 14.2873 13.75 13.5691C13.75 12.851 14.31 12.2681 15 12.2681H17.5C18.19 12.2681 18.75 12.851 18.75 13.5691C18.75 14.2873 18.19 14.8702 17.5 14.8702ZM17.5 9.66597H15C14.31 9.66597 13.75 9.0831 13.75 8.36492C13.75 7.64673 14.31 7.06386 15 7.06386H17.5C18.19 7.06386 18.75 7.64673 18.75 8.36492C18.75 9.0831 18.19 9.66597 17.5 9.66597Z" fill="#F6E36A"/>
</svg>
