<svg width="40" height="40" viewBox="0 0 40 40" fill="none" xmlns="http://www.w3.org/2000/svg">
<path d="M18.838 13.28L11.1792 10.4827C11.1792 13.0367 11.1585 13.0186 11.2354 13.2597C11.3416 13.6056 11.5929 13.8928 11.9301 14.0277C20.2751 17.3769 19.6884 17.1789 20 17.1789C20.3089 17.1789 19.7149 17.3805 28.0691 14.0277C28.5167 13.8482 28.8208 13.4 28.8208 12.8862V10.6164L21.112 13.298C20.3723 13.5552 19.5725 13.5488 18.838 13.28Z" fill="#F6E36A"/>
<path d="M7.55485 6.51769C7.83695 6.71271 6.89337 6.3265 19.6124 10.971C19.8566 11.0612 20.122 11.0633 20.3704 10.9775C24.8014 9.4363 27.6325 8.45155 31.1838 7.21642V14.114C31.1838 14.4516 31.3151 14.7582 31.5277 14.9791C32.2621 15.7455 33.5281 15.1999 33.5281 14.114C33.5281 5.77517 33.526 5.58659 33.5258 5.58765C33.561 5.06609 33.246 4.54029 32.7264 4.35953C20.2127 0.00774535 20.2778 0 20 0C19.7117 0 19.7955 0.00252736 7.84555 4.36524C6.95409 4.69071 6.77717 5.93742 7.55485 6.51769Z" fill="#F6E36A"/>
<path d="M7.0509 25.7693H9.41396V28.234H7.0509V25.7693Z" fill="#F6E36A"/>
<path d="M38.8279 5.51978H35.8725V14.1141C35.8725 16.1377 34.2948 17.783 32.356 17.783C31.1081 17.783 30.0102 17.1014 29.3858 16.0766C29.0629 16.2676 29.5992 16.0346 21.2628 19.3803C20.4642 19.701 19.5651 19.7122 18.7372 19.3803L11.0885 16.3106C9.7304 15.765 8.83488 14.4057 8.83488 12.8862V9.62737L7.07119 8.98245C5.66226 8.4688 4.71595 7.07704 4.71595 5.51978H1.17215C0.525123 5.51978 0 6.06767 0 6.74276V33.1453C0 33.8204 0.525123 34.3683 1.17215 34.3683H11.7674V36.833H8.2324C7.58537 36.833 7.06025 37.3809 7.06025 38.056C7.06025 38.7319 7.58537 39.279 8.2324 39.279H31.7676C32.4146 39.279 32.9398 38.7319 32.9398 38.056C32.9398 37.3809 32.4146 36.833 31.7676 36.833H28.2326V34.3683H38.8279C39.4749 34.3683 40 33.8204 40 33.1453V6.74276C40 6.06767 39.4749 5.51978 38.8279 5.51978ZM11.7582 29.4568C11.7582 30.1327 11.2331 30.6798 10.5861 30.6798H5.87872C5.2317 30.6798 4.70657 30.1327 4.70657 29.4568V24.5461C4.70657 23.8702 5.2317 23.3232 5.87872 23.3232H10.5861C11.2331 23.3232 11.7582 23.8702 11.7582 24.5461V29.4568ZM34.1213 30.6798H15.2926C14.6456 30.6798 14.1205 30.1327 14.1205 29.4568C14.1205 28.7817 14.6456 28.2338 15.2926 28.2338H34.1213C34.7683 28.2338 35.2934 28.7817 35.2934 29.4568C35.2934 30.1327 34.7683 30.6798 34.1213 30.6798ZM34.1213 25.7691H15.2926C14.6456 25.7691 14.1205 25.2212 14.1205 24.5461C14.1205 23.8702 14.6456 23.3232 15.2926 23.3232H34.1213C34.7683 23.3232 35.2934 23.8702 35.2934 24.5461C35.2934 25.2212 34.7683 25.7691 34.1213 25.7691Z" fill="#F6E36A"/>
</svg>
