<svg width="15" height="11" viewBox="0 0 15 11" fill="none" xmlns="http://www.w3.org/2000/svg">
<path d="M9.41313 5.83813L14.2005 8.86459V2.68385L9.41313 5.83813Z" fill="#F6E36A"/>
<path d="M0 2.68385V8.86459L4.78732 5.83813L0 2.68385Z" fill="#F6E36A"/>
<path d="M13.3138 0.883942H0.887139C0.444216 0.883942 0.0927176 1.21414 0.0261459 1.63931L7.10049 6.30021L14.1748 1.63931C14.1083 1.21414 13.7568 0.883942 13.3138 0.883942Z" fill="#F6E36A"/>
<path d="M8.60105 6.37419L7.34507 7.20146C7.2705 7.25028 7.18618 7.27424 7.10097 7.27424C7.01576 7.27424 6.93143 7.25028 6.85687 7.20146L5.60089 6.37331L0.0284004 9.89805C0.0967473 10.3197 0.44647 10.6472 0.887618 10.6472H13.3143C13.7555 10.6472 14.1052 10.3197 14.1735 9.89805L8.60105 6.37419Z" fill="#F6E36A"/>
</svg>
