<svg width="18" height="21" viewBox="0 0 18 21" fill="none" xmlns="http://www.w3.org/2000/svg">
<path d="M16.035 13.3506C14.9677 13.3506 13.9196 13.1559 12.9265 12.773C12.4398 12.5793 11.8416 12.757 11.5446 13.1129L9.5843 14.8393C7.31094 13.4235 5.9106 11.7903 4.71365 9.15797L6.1499 6.93057C6.52305 6.49581 6.6569 5.86072 6.49654 5.26484C6.16693 4.10008 5.99949 2.87795 5.99949 1.63215C5.99954 0.732173 5.37196 0 4.6006 0H1.39894C0.627576 0 0 0.732173 0 1.6321C0 11.9476 7.19322 20.3396 16.035 20.3396C16.8064 20.3396 17.434 19.6075 17.434 18.7075V14.9827C17.4339 14.0828 16.8063 13.3506 16.035 13.3506Z" fill="#F6E36A"/>
</svg>
