<svg width="17" height="18" viewBox="0 0 17 18" fill="none" xmlns="http://www.w3.org/2000/svg">
<path d="M15.6359 11.8149C14.5951 11.8149 13.5731 11.6426 12.6047 11.3037C12.1302 11.1323 11.5468 11.2896 11.2572 11.6045L9.34573 13.1324C7.12896 11.8794 5.76347 10.4341 4.59632 8.10455L5.99682 6.13336C6.36068 5.74861 6.49119 5.18658 6.33483 4.65923C6.01342 3.62845 5.85015 2.54691 5.85015 1.44441C5.8502 0.647953 5.23824 0 4.48608 0H1.36411C0.611954 0 0 0.647953 0 1.44436C0 10.5733 7.01416 18 15.6359 18C16.388 18 17 17.352 17 16.5556V13.2593C17 12.4629 16.388 11.8149 15.6359 11.8149Z" fill="#F6E36A"/>
</svg>
