<svg width="15" height="22" viewBox="0 0 15 22" fill="none" xmlns="http://www.w3.org/2000/svg">
<path d="M7.26415 0C3.25873 0 0 3.39815 0 7.57495C0 12.8247 7.27129 21.7925 7.27129 21.7925C7.27129 21.7925 14.5283 12.5666 14.5283 7.57495C14.5283 3.39815 11.2697 0 7.26415 0ZM9.4559 9.7929C8.85155 10.423 8.05791 10.7381 7.26415 10.7381C6.47052 10.7381 5.67662 10.423 5.07253 9.7929C3.86397 8.53276 3.86397 6.48227 5.07253 5.222C5.65775 4.61148 6.4362 4.27523 7.26415 4.27523C8.0921 4.27523 8.87043 4.61161 9.4559 5.222C10.6645 6.48227 10.6645 8.53276 9.4559 9.7929Z" fill="#F6E36A"/>
</svg>
