<svg width="13" height="20" viewBox="0 0 13 20" fill="none" xmlns="http://www.w3.org/2000/svg">
<path d="M6.5 0C2.91593 0 0 3.11865 0 6.9519C0 11.7699 6.50639 20 6.50639 20C6.50639 20 13 11.533 13 6.9519C13 3.11865 10.0842 0 6.5 0ZM8.46119 8.98743C7.92041 9.56567 7.21026 9.85486 6.5 9.85486C5.78985 9.85486 5.07947 9.56567 4.53893 8.98743C3.4575 7.83093 3.4575 5.9491 4.53893 4.79248C5.06258 4.23218 5.75915 3.92358 6.5 3.92358C7.24085 3.92358 7.9373 4.2323 8.46119 4.79248C9.54262 5.9491 9.54262 7.83093 8.46119 8.98743Z" fill="#F6E36A"/>
</svg>
