<svg width="40" height="36" viewBox="0 0 40 36" fill="none" xmlns="http://www.w3.org/2000/svg">
<path d="M37.4896 24.5319V11.8365L35.1459 12.6337V24.5319C33.6885 25.0326 32.6355 26.4392 32.6355 28.093V34.4971C32.6355 35.1575 33.1602 35.6929 33.8074 35.6929H38.8282C39.4753 35.6929 40 35.1575 40 34.4971V28.093C40 26.4392 38.9471 25.0326 37.4896 24.5319Z" fill="#F6E36A"/>
<path d="M18.8887 17.4072L7.53125 13.5442V21.6888C7.53125 22.006 7.65477 22.3101 7.87453 22.5344C11.1137 25.8393 15.4202 27.6595 20.0005 27.6595C24.5809 27.6595 28.887 25.8393 32.1255 22.5342C32.3453 22.31 32.4688 22.0058 32.4688 21.6888V13.5442L21.1117 17.4072C20.3354 17.6709 19.5539 17.6334 18.8887 17.4072Z" fill="#F6E36A"/>
<path d="M20 15.1997C20.1252 15.1997 20.2503 15.1792 20.3705 15.1383L39.1987 8.7342C39.6772 8.57141 40 8.11446 40 7.59979C40 7.08512 39.6773 6.62817 39.1987 6.46538L20.3705 0.0612843C20.1301 -0.0204281 19.8699 -0.0204281 19.6295 0.0612843L0.801328 6.46538C0.322734 6.62809 0 7.08504 0 7.59979C0 8.11454 0.322734 8.57141 0.801328 8.7342L19.6295 15.1383C19.7497 15.1792 19.8748 15.1997 20 15.1997Z" fill="#F6E36A"/>
</svg>
